<svg width="15" height="14" viewBox="0 0 15 14" fill="none" xmlns="http://www.w3.org/2000/svg">
    <g clip-path="url(#clip0)">
        <path d="M2.33589 6.125C1.53206 6.125 0.877563 6.7795 0.877563 7.58332V12.25C0.877563 13.0538 1.53206 13.7083 2.33589 13.7083H4.08589C4.41431 13.7083 4.71646 13.5975 4.96089 13.4131V6.125H2.33589Z" fill="#F93737" />
        <path d="M14.8776 8.3125C14.8776 7.96193 14.7388 7.63525 14.4978 7.39433C14.7703 7.09625 14.9091 6.69665 14.8711 6.28075C14.8029 5.53933 14.135 4.95833 13.3498 4.95833H9.74657C9.92507 4.4164 10.2109 3.423 10.2109 2.625C10.2109 1.35975 9.13582 0.291679 8.4609 0.291679C7.85482 0.291679 7.42197 0.632929 7.40332 0.646929C7.3345 0.702355 7.29425 0.786355 7.29425 0.875004V2.85308L5.61425 6.4925L5.54425 6.52808V12.7803C6.01907 13.0043 6.6199 13.125 7.00257 13.125H12.357C12.9923 13.125 13.5482 12.6968 13.6788 12.1059C13.7459 11.802 13.7068 11.4958 13.5733 11.2298C14.0043 11.0128 14.2943 10.5688 14.2943 10.0625C14.2943 9.856 14.247 9.65825 14.1572 9.47918C14.5883 9.26218 14.8776 8.81825 14.8776 8.3125Z" fill="#F93737" />
    </g>
    <defs>
        <clipPath id="clip0">
            <rect width="14" height="14" fill="white" transform="translate(0.877563)" />
        </clipPath>
    </defs>
</svg>